<?xml version="1.0" encoding="utf-8"?>
<!-- Generator: Adobe Illustrator 15.1.0, SVG Export Plug-In . SVG Version: 6.00 Build 0)  -->
<!DOCTYPE svg PUBLIC "-//W3C//DTD SVG 1.1//EN" "http://www.w3.org/Graphics/SVG/1.1/DTD/svg11.dtd">
<svg version="1.1" id="レイヤー_1" xmlns="http://www.w3.org/2000/svg" xmlns:xlink="http://www.w3.org/1999/xlink" x="0px"
	 y="0px" width="56.513px" height="54.909px" viewBox="0 0 56.513 54.909" enable-background="new 0 0 56.513 54.909"
	 xml:space="preserve">
<g>
	<g>
		<g>
			<path fill="#CCCCCC" d="M4.054,47.182L0,40.472h2.606L5.23,45.13l2.672-4.658h2.353l-3.976,6.71v4.388H4.054V47.182z"/>
			<path fill="#CCCCCC" d="M17.14,51.569h-2.019v-1.112h-0.032c-0.652,0.795-1.574,1.304-2.688,1.304
				c-1.94,0-2.782-1.367-2.782-3.212v-5.167h2.131v4.372c0,1.003,0.016,2.353,1.383,2.353c1.542,0,1.876-1.668,1.876-2.719v-4.006
				h2.131V51.569z"/>
			<path fill="#CCCCCC" d="M18.38,43.382h2.035v1.161h0.032c0.477-0.796,1.287-1.353,2.544-1.353c2.512,0,3.434,2.004,3.434,4.262
				c0,2.24-0.922,4.309-3.482,4.309c-0.905,0-1.653-0.223-2.4-1.128H20.51v4.276h-2.13V43.382z M20.526,47.452
				c0,1.16,0.461,2.654,1.876,2.654c1.399,0,1.797-1.525,1.797-2.654c0-1.098-0.381-2.607-1.765-2.607
				C21.066,44.845,20.526,46.307,20.526,47.452z"/>
			<path fill="#CCCCCC" d="M27.188,43.382h2.134v8.188h-2.134V43.382z"/>
			<path fill="#CCCCCC" d="M30.683,44.94v-1.559v-1.438l2.132-0.884v2.322h1.892v1.559h-1.892v3.816c0,0.699,0.19,1.35,1.001,1.35
				c0.382,0,0.748-0.079,0.971-0.222l0.063,1.685c-0.445,0.128-0.938,0.191-1.574,0.191c-1.67,0-2.593-1.033-2.593-2.655V44.94z"/>
			<path fill="#CCCCCC" d="M42.191,51.108c-0.779,0.43-1.67,0.652-2.814,0.652c-2.703,0-4.276-1.558-4.276-4.245
				c0-2.37,1.256-4.325,3.8-4.325c3.037,0,3.896,2.083,3.896,4.945h-5.66c0.095,1.32,1.018,2.067,2.337,2.067
				c1.033,0,1.924-0.382,2.719-0.827V51.108z M40.761,46.673c-0.063-1.033-0.541-1.924-1.733-1.924
				c-1.191,0-1.797,0.827-1.892,1.924H40.761z"/>
			<path fill="#CCCCCC" d="M43.512,43.382h1.893v1.859h0.032c0.095-0.763,0.969-2.051,2.242-2.051c0.206,0,0.428,0,0.651,0.063V45.4
				c-0.191-0.111-0.573-0.175-0.955-0.175c-1.731,0-1.731,2.162-1.731,3.34v3.004h-2.132V43.382z"/>
			<path fill="#CCCCCC" d="M56.513,51.569h-2.021v-1.112H54.46c-0.651,0.795-1.573,1.304-2.687,1.304
				c-1.939,0-2.782-1.367-2.782-3.212v-5.167h2.131v4.372c0,1.003,0.016,2.353,1.383,2.353c1.543,0,1.876-1.668,1.876-2.719v-4.006
				h2.132V51.569z"/>
		</g>
	</g>
	<g>
		<path fill="#CCCCCC" d="M32.109,25.556c-1.091-0.761-2.42-1.208-3.853-1.208c-1.435,0-2.764,0.447-3.855,1.208
			c-1.748,1.219-2.892,3.245-2.892,5.536c0,3.726,3.02,6.743,6.747,6.743c3.725,0,6.744-3.018,6.744-6.743
			C35.001,28.801,33.857,26.774,32.109,25.556z"/>
		<polygon fill="#CCCCCC" points="28.257,22.075 10.714,4.534 15.251,0 28.257,13.003 41.261,0 45.797,4.534 		"/>
	</g>
</g>
</svg>
